<?xml version="1.0" standalone="no"?>
<!DOCTYPE svg PUBLIC "-//W3C//DTD SVG 20010904//EN"
 "http://www.w3.org/TR/2001/REC-SVG-20010904/DTD/svg10.dtd">
<svg version="1.0" xmlns="http://www.w3.org/2000/svg"
 width="512.000000pt" height="512.000000pt" viewBox="0 0 512.000000 512.000000"
 preserveAspectRatio="xMidYMid meet">
<metadata>
Created by potrace 1.16, written by Peter Selinger 2001-2019
</metadata>
<g transform="translate(0.000000,512.000000) scale(0.100000,-0.100000)"
fill="#000000" stroke="none">
<path d="M0 2560 l0 -2560 2560 0 2560 0 0 2560 0 2560 -2560 0 -2560 0 0
-2560z m2170 2361 c0 -59 4 -84 16 -95 8 -9 17 -16 19 -16 2 0 11 7 19 16 12
11 16 36 16 95 l0 79 421 0 421 0 -7 -75 c-6 -72 -6 -75 14 -75 12 0 21 -4 21
-10 0 -5 -12 -10 -27 -10 -21 0 -24 -3 -15 -12 10 -10 17 -10 33 0 11 7 25 10
31 6 6 -4 8 -3 4 4 -3 6 3 13 14 17 16 5 18 10 10 20 -5 7 -8 23 -6 36 3 13 5
41 5 62 l1 37 80 0 80 0 0 -40 c0 -22 4 -40 9 -40 5 0 11 -20 13 -45 2 -25 1
-45 -2 -45 -3 0 -5 -11 -5 -25 0 -14 3 -25 6 -25 7 0 22 -40 20 -52 -2 -18 69
-6 103 17 20 14 47 25 59 25 18 0 22 6 22 32 0 24 5 34 19 36 16 3 18 -2 15
-41 -2 -25 -1 -43 4 -40 4 2 7 22 7 44 l0 39 65 0 65 0 0 -40 0 -40 80 0 80 0
0 -40 c0 -30 4 -40 16 -40 13 0 15 -9 12 -45 -2 -25 0 -45 4 -45 4 0 5 -8 2
-17 -5 -15 -4 -15 4 -3 6 8 9 17 6 21 -2 4 4 6 14 5 13 -1 18 8 20 42 3 42 3
42 43 42 39 0 39 0 39 -40 l0 -40 40 0 40 0 0 -40 0 -40 40 0 40 0 0 -40 c0
-39 -1 -40 -34 -40 -42 0 -62 -21 -47 -49 10 -17 7 -21 -24 -31 -39 -13 -52
-8 -65 24 -9 20 -9 20 -9 1 -1 -25 17 -45 39 -45 9 0 21 -15 29 -36 7 -19 23
-40 37 -46 13 -6 33 -26 43 -44 11 -18 33 -39 48 -48 16 -8 34 -26 40 -39 7
-15 27 -31 47 -38 21 -8 36 -20 36 -29 0 -22 20 -40 44 -39 20 0 20 0 0 9 -32
13 -37 26 -24 65 10 31 14 34 31 24 28 -15 49 5 49 47 0 33 1 34 40 34 l40 0
0 -40 0 -40 40 0 40 0 0 -40 0 -40 40 0 40 0 0 -45 0 -45 -39 0 c-32 0 -39 -4
-43 -22 -4 -21 -1 -23 40 -19 38 3 43 1 40 -15 -2 -14 -12 -19 -33 -19 -26 0
-31 -4 -35 -33 -4 -24 -14 -38 -35 -50 -16 -9 -32 -18 -34 -20 -3 -1 2 -8 11
-15 9 -6 18 -24 22 -39 4 -18 14 -29 29 -32 56 -12 97 -14 97 -6 0 5 13 5 30
0 27 -8 30 -7 30 16 0 21 4 24 40 24 l40 0 0 -65 0 -65 -39 0 c-22 0 -42 -3
-44 -7 -3 -5 15 -6 39 -4 27 2 44 -1 44 -8 0 -6 18 -11 40 -11 l40 0 0 -95 0
-95 -42 -2 -43 -1 43 -4 c44 -4 47 -8 36 -62 -8 -36 -42 -44 -51 -11 -4 15 -9
17 -23 10 -24 -13 -77 -13 -85 0 -14 22 -25 8 -25 -30 0 -36 4 -43 35 -61 41
-25 48 -42 50 -137 1 -40 5 -76 9 -80 4 -4 46 -9 92 -11 l84 -3 0 -409 0 -409
-71 0 c-81 0 -109 -11 -109 -43 0 -38 19 -47 102 -47 l78 0 0 -65 0 -65 -38 0
c-25 0 -43 7 -55 20 -16 19 -53 18 -41 -1 3 -5 9 -7 14 -4 13 8 40 -24 40 -46
0 -16 7 -19 40 -19 l40 0 0 -45 0 -45 -40 0 c-36 0 -40 -2 -40 -26 0 -25 -2
-26 -45 -22 -59 4 -54 -16 6 -21 l44 -5 -45 -6 -45 -7 43 -1 42 -2 0 -75 0
-75 -40 0 c-22 0 -40 -5 -40 -10 0 -14 -100 -11 -117 3 -9 6 -13 6 -13 -2 0
-7 -3 -10 -7 -8 -5 3 -9 -11 -9 -31 -1 -33 0 -35 9 -14 12 26 37 29 43 4 4
-14 14 -16 50 -14 l44 4 0 -46 0 -46 -40 0 c-29 0 -40 4 -40 15 0 8 -1 15 -2
15 -2 0 -42 3 -90 7 l-87 6 -11 -27 c-12 -34 -4 -69 21 -92 11 -10 19 -30 19
-49 0 -29 2 -31 29 -27 16 2 32 -1 36 -8 6 -10 -5 -12 -47 -8 -52 4 -55 3 -39
-13 9 -10 34 -19 56 -22 l40 -4 -42 -1 c-54 -2 -57 -22 -3 -22 l40 0 0 -45 0
-45 -40 0 -40 0 0 -40 0 -40 -40 0 -40 0 0 -40 0 -40 -40 0 -40 0 0 -40 0 -40
-40 0 -40 0 0 -40 0 -40 -40 0 -40 0 0 -40 0 -40 -40 0 -40 0 0 -40 0 -40 -40
0 -40 0 0 -40 0 -40 -40 0 -40 0 0 -40 0 -40 -45 0 -45 0 0 40 c0 54 -20 51
-22 -2 l-1 -43 -4 40 c-3 22 -12 47 -22 56 -16 16 -17 13 -13 -39 4 -42 2 -53
-8 -47 -7 4 -10 20 -8 36 4 27 2 29 -27 29 -19 0 -39 8 -49 19 -23 25 -58 33
-92 21 l-27 -11 6 -87 c4 -48 7 -88 7 -89 0 -2 7 -3 15 -3 11 0 15 -11 15 -40
l0 -40 -46 0 -46 0 4 44 c2 36 0 46 -14 50 -25 6 -22 31 5 43 20 9 18 10 -15
9 -20 0 -34 -4 -31 -8 2 -5 -1 -8 -8 -8 -8 0 -8 -4 -2 -12 14 -18 17 -118 3
-118 -5 0 -10 -18 -10 -40 l0 -40 -75 0 -75 0 -2 43 -1 42 -7 -45 -6 -45 -5
44 c-5 60 -25 65 -21 6 4 -43 3 -45 -22 -45 -24 0 -26 -4 -26 -40 l0 -40 -45
0 -45 0 0 40 c0 33 -3 40 -19 40 -22 0 -54 27 -46 40 3 5 1 11 -4 14 -19 12
-20 -25 -1 -41 13 -12 20 -30 20 -55 l0 -38 -620 0 -620 0 0 44 c0 40 -2 44
-21 39 -18 -5 -20 -3 -14 16 4 13 2 28 -5 36 -10 12 -9 15 9 15 12 0 19 -4 16
-10 -3 -5 0 -7 8 -4 8 3 17 -2 20 -10 4 -9 1 -16 -5 -16 -9 0 -9 -3 0 -12 10
-10 15 -10 21 1 12 19 3 39 -20 46 -11 4 -17 10 -14 14 2 5 -7 7 -20 5 -34 -3
-31 4 8 21 17 8 26 14 20 15 -7 0 -19 16 -27 35 -12 27 -21 35 -40 35 -14 0
-28 -5 -32 -12 -9 -15 -15 -178 -6 -177 42 6 52 -2 52 -41 l0 -40 -45 0 -45 0
0 40 c0 33 -3 40 -20 40 -18 0 -20 7 -20 78 0 88 -16 122 -56 122 -14 0 -23
-4 -20 -8 2 -4 -5 -14 -17 -22 -21 -12 -21 -12 -7 6 14 18 14 18 -2 5 -26 -20
-22 -28 18 -35 37 -7 54 -30 36 -48 -7 -7 -71 -13 -162 -16 l-150 -4 0 41 0
41 -80 0 -80 0 0 40 c0 29 -4 40 -15 40 -11 0 -15 11 -15 38 0 33 4 39 30 49
17 6 30 19 30 28 0 10 -5 13 -12 9 -7 -5 -9 -2 -6 7 4 11 -2 15 -21 17 -22 1
-23 0 -8 -9 30 -18 21 -47 -18 -55 -33 -6 -35 -9 -35 -45 l0 -39 -45 0 -45 0
0 40 0 40 -40 0 c-40 0 -40 0 -40 39 0 47 22 71 50 53 22 -14 75 -1 75 19 0 7
-13 20 -28 27 l-28 13 25 20 c13 10 29 19 36 19 6 0 -3 16 -21 35 -36 38 -62
43 -97 19 -18 -13 -20 -19 -11 -36 17 -31 0 -40 -86 -45 l-76 -4 4 78 5 78 32
1 c23 0 36 7 46 25 23 41 17 68 -19 89 -19 11 -39 31 -45 44 -6 14 -27 30 -46
37 -21 8 -36 20 -36 29 0 22 -20 40 -44 39 -20 0 -20 0 0 -9 32 -13 37 -26 24
-65 -10 -31 -14 -34 -31 -24 -28 15 -49 -5 -49 -47 0 -33 -1 -34 -40 -34 l-40
0 0 40 0 40 -40 0 -40 0 0 40 c0 39 1 40 34 40 33 0 35 2 38 38 2 23 8 36 15
35 7 -2 13 4 13 12 0 16 43 31 60 20 6 -4 16 -18 21 -32 11 -30 24 -24 14 6
-3 11 -21 28 -39 39 -30 18 -35 27 -41 74 -6 44 -9 49 -16 30 -7 -19 -12 -21
-28 -12 -32 17 -61 12 -71 -12 -9 -23 -9 -23 -9 2 -1 22 -6 25 -33 25 -28 0
-32 3 -30 20 6 33 22 47 38 34 8 -6 14 -18 14 -25 0 -18 2 -17 44 2 l34 17
-21 36 c-12 20 -26 39 -32 43 -16 12 -70 9 -83 -4 -21 -21 -14 30 7 61 26 36
36 118 18 151 -10 20 -20 25 -47 24 -19 0 -42 -4 -51 -8 -13 -5 -19 0 -27 23
-8 23 -7 31 4 35 12 5 13 10 3 28 -12 23 -12 23 10 4 11 -11 21 -25 21 -31 0
-7 7 -19 17 -26 15 -13 15 -12 5 8 -7 12 -12 37 -12 55 0 19 -7 44 -16 57 -14
19 -24 22 -60 19 -38 -3 -44 -1 -44 16 0 16 -3 17 -12 8 -21 -21 -47 -14 -54
14 -8 31 1 94 16 108 17 16 50 -29 50 -68 l1 -31 19 24 c26 30 26 77 0 91 -10
6 -23 10 -27 9 -4 -1 -38 -1 -75 0 l-68 1 0 155 0 155 76 0 c86 0 114 11 114
43 0 39 -19 47 -107 47 l-83 0 0 160 0 160 83 0 c88 0 107 8 107 47 0 32 -28
43 -114 43 l-76 0 0 80 0 79 88 3 87 3 1 36 c1 41 1 41 -103 39 -72 -1 -73 -1
-73 24 0 26 1 26 73 26 89 0 117 16 117 64 0 19 -9 44 -20 57 l-19 24 -1 -31
c0 -38 -29 -78 -48 -66 -16 11 -27 73 -18 106 7 28 33 35 54 14 9 -9 12 -8 12
8 0 17 6 19 44 16 36 -3 46 0 60 19 9 13 16 38 16 57 0 18 5 43 12 55 10 20
10 21 -5 8 -10 -7 -17 -19 -17 -26 0 -6 -10 -20 -21 -31 -22 -19 -22 -19 -10
4 10 18 9 23 -3 28 -11 4 -12 12 -4 35 8 23 15 28 27 23 35 -15 77 -16 90 -1
24 30 25 83 1 131 -24 50 -35 57 -45 26 -7 -21 -30 -27 -40 -10 -4 6 -8 38
-10 71 l-3 61 75 -5 c41 -3 72 -2 69 1 -3 3 1 13 9 22 14 16 14 18 1 23 -9 4
-19 -1 -24 -10 -13 -22 -42 -9 -43 19 0 13 -3 17 -6 11 -2 -8 -22 -13 -44 -13
l-39 0 0 45 0 45 40 0 c36 0 40 -3 40 -24 0 -14 5 -28 10 -31 6 -3 10 1 10 9
0 22 8 20 31 -6 18 -21 20 -22 29 -5 6 9 21 17 33 17 18 0 19 -2 7 -10 -13 -9
-13 -10 0 -10 33 0 58 37 62 89 1 21 8 31 18 31 22 0 40 20 40 45 0 11 5 27
10 35 7 12 10 11 17 -7 l8 -22 33 25 c36 29 42 66 16 95 -13 14 -21 16 -36 8
-28 -15 -52 6 -35 32 9 14 9 21 -1 31 -6 6 -12 31 -12 55 l0 43 40 0 40 0 0
40 0 40 40 0 40 0 0 40 0 40 43 0 c24 0 49 -6 55 -12 10 -10 17 -10 31 -1 26
17 47 -7 32 -35 -8 -15 -6 -23 8 -36 29 -26 66 -20 95 16 l25 33 -22 8 c-18 7
-19 10 -7 17 8 5 24 10 35 10 25 0 45 18 45 40 0 10 10 17 31 18 34 3 70 19
81 36 4 6 8 26 8 44 0 27 -4 32 -23 32 -20 0 -23 4 -19 29 2 16 -1 32 -7 35
-6 4 -11 25 -11 47 l0 39 118 0 c93 0 122 -3 141 -17 l24 -16 -22 -18 -21 -18
21 -6 c11 -4 32 -4 47 -1 26 6 26 6 8 -9 -25 -19 -18 -25 13 -14 19 8 21 12
11 24 -6 8 -10 29 -9 47 2 18 0 38 -3 43 -3 6 -6 40 -7 78 l-1 67 40 0 40 0 2
-42 1 -43 4 43 c4 37 7 42 29 42 21 0 24 -4 24 -40 0 -54 20 -51 21 3 2 32 3
35 6 13 6 -36 -5 -79 -17 -71 -6 4 -6 -5 1 -22 6 -15 11 -30 12 -33 1 -3 8 -3
16 -2 20 5 2 -18 -23 -28 -16 -7 -11 -9 25 -9 68 -1 91 21 80 77 -8 41 -7 42
18 43 14 0 20 3 14 6 -7 2 -13 15 -13 29 0 17 7 25 26 30 33 9 95 -2 106 -18
12 -19 -28 -48 -66 -48 l-31 -1 35 -19 c81 -44 109 -20 110 93 l0 77 75 0 75
0 0 -79z m-423 -63 c-2 -13 -4 -3 -4 22 0 25 2 35 4 23 2 -13 2 -33 0 -45z
m1757 -28 c35 -13 33 -35 -4 -50 -40 -17 -95 -2 -95 25 0 12 9 22 25 26 36 10
46 10 74 -1z m-2294 -190 c0 -27 5 -43 15 -46 18 -7 20 -35 3 -52 -7 -7 -27
-12 -44 -12 -18 0 -36 -4 -39 -10 -3 -5 -14 -10 -25 -10 -13 0 -17 -5 -13 -20
3 -11 0 -20 -6 -20 -6 0 -11 6 -11 14 0 8 -3 21 -6 30 -5 13 1 16 30 16 34 0
36 1 36 35 0 24 5 35 15 35 11 0 15 11 15 40 0 29 4 40 15 40 11 0 15 -11 15
-40z m-163 -196 c-3 -3 -12 -4 -19 -1 -8 3 -5 6 6 6 11 1 17 -2 13 -5z m3136
-81 c-7 -2 -21 -2 -30 0 -10 3 -4 5 12 5 17 0 24 -2 18 -5z m184 -210 c-3 -10
-5 -4 -5 12 0 17 2 24 5 18 2 -7 2 -21 0 -30z m-3690 -75 c-3 -8 -6 -5 -6 6
-1 11 2 17 5 13 3 -3 4 -12 1 -19z m-41 -48 c8 0 14 -5 14 -11 0 -6 -9 -9 -20
-6 -15 4 -20 0 -20 -13 0 -11 -4 -22 -10 -25 -5 -3 -10 -21 -10 -39 0 -17 -5
-37 -12 -44 -17 -17 -45 -15 -52 3 -3 10 -19 15 -46 15 -29 0 -40 4 -40 15 0
11 11 15 40 15 29 0 40 4 40 15 0 10 11 15 35 15 34 0 35 2 35 36 0 29 3 35
16 30 9 -3 22 -6 30 -6z m4037 -216 c9 -10 -14 -65 -27 -61 -14 5 -36 48 -30
59 6 9 48 11 57 2z m-4393 -294 l0 -40 -40 0 -40 0 0 40 0 40 40 0 40 0 0 -40z
m54 -49 c4 -5 -3 -7 -14 -4 -23 6 -26 13 -6 13 8 0 17 -4 20 -9z m-49 -41 c0
-35 0 -35 -45 -36 l-45 -1 43 4 c53 5 55 23 2 23 -36 0 -40 2 -40 26 0 23 3
25 43 22 41 -3 42 -4 42 -38z m35 -5 c0 -8 -2 -15 -4 -15 -2 0 -6 7 -10 15 -3
8 -1 15 4 15 6 0 10 -7 10 -15z m-35 -55 c4 -6 -12 -10 -39 -10 -25 0 -46 5
-46 10 0 6 18 10 39 10 22 0 43 -4 46 -10z m4562 -102 c-3 -8 -6 -5 -6 6 -1
11 2 17 5 13 3 -3 4 -12 1 -19z m73 -56 c0 -40 -16 -72 -35 -72 -19 0 -35 32
-35 72 0 31 2 33 35 33 33 0 35 -2 35 -33z m-4635 -1462 c-3 -5 -24 -10 -46
-10 -21 0 -39 5 -39 10 0 6 21 10 46 10 27 0 43 -4 39 -10z m0 -60 c0 -34 -1
-35 -42 -38 -40 -3 -43 -1 -43 22 0 24 4 26 40 26 53 0 51 18 -2 23 l-43 4 45
-1 c45 -1 45 -1 45 -36z m35 5 c0 -8 -4 -15 -10 -15 -5 0 -7 7 -4 15 4 8 8 15
10 15 2 0 4 -7 4 -15z m15 -45 c-3 -5 -14 -10 -23 -9 -14 0 -13 2 3 9 27 11
27 11 20 0z m-55 -50 l0 -40 -40 0 -40 0 0 40 0 40 40 0 40 0 0 -40z m134
-102 c18 -26 13 -38 -19 -38 -30 0 -35 9 -24 38 11 28 24 28 43 0z m4255 -158
c11 -34 0 -45 -36 -38 -19 4 -20 33 -1 56 16 19 25 15 37 -18z m-4091 -112 c7
-7 12 -27 12 -45 0 -31 -2 -33 -35 -33 -24 0 -35 5 -35 15 0 11 -11 15 -40 15
-29 0 -40 4 -40 15 0 11 11 15 40 15 27 0 43 5 46 15 7 18 35 20 52 3z m179
-285 c-3 -10 -5 -4 -5 12 0 17 2 24 5 18 2 -7 2 -21 0 -30z m56 -30 c-7 -2
-21 -2 -30 0 -10 3 -4 5 12 5 17 0 24 -2 18 -5z m37 -38 c0 -13 -3 -26 -7 -28
-5 -3 -8 10 -8 28 0 18 3 31 8 28 4 -2 7 -15 7 -28z m200 -221 c-12 -13 -40
-9 -40 6 0 11 22 18 38 12 9 -3 10 -8 2 -18z m2770 -178 c0 -32 -7 -36 -41
-24 -34 12 -33 27 1 45 29 14 40 9 40 -21z"/>
<path d="M3185 4910 c3 -5 1 -10 -5 -10 -6 0 -8 -10 -4 -27 10 -40 15 -47 25
-32 7 11 9 11 9 1 0 -8 5 -10 13 -6 8 5 8 2 -2 -9 -7 -9 -23 -17 -35 -18 -11
0 -15 -3 -8 -6 7 -3 19 -20 27 -39 10 -25 20 -34 38 -34 32 0 47 20 51 67 2
21 5 40 6 43 1 3 3 21 4 40 l1 36 -63 2 c-41 2 -61 -1 -57 -8z m108 -32 c6
-42 1 -51 -24 -37 -16 8 -18 13 -9 25 7 7 10 21 6 29 -3 9 0 15 8 15 8 0 16
-14 19 -32z m-80 5 c-7 -2 -19 -2 -25 0 -7 3 -2 5 12 5 14 0 19 -2 13 -5z"/>
<path d="M3268 4853 c7 -3 16 -2 19 1 4 3 -2 6 -13 5 -11 0 -14 -3 -6 -6z"/>
<path d="M3586 4728 c3 -4 9 -8 15 -8 5 0 9 4 9 8 0 5 -7 9 -15 9 -8 0 -12 -4
-9 -9z"/>
<path d="M3511 4715 c-1 -34 27 -65 57 -64 27 1 27 1 -3 8 -23 5 -33 14 -42
41 -8 23 -12 28 -12 15z"/>
<path d="M3661 4674 c0 -11 3 -14 6 -6 3 7 2 16 -1 19 -3 4 -6 -2 -5 -13z"/>
<path d="M1314 4645 c0 -31 1 -32 23 -22 28 12 27 37 -2 47 -17 6 -20 3 -21
-25z"/>
<path d="M3778 4668 c-31 -11 -35 -20 -15 -35 32 -25 43 -22 43 13 -1 19 -1
34 -1 33 0 0 -12 -5 -27 -11z"/>
<path d="M3820 4590 c0 -20 1 -20 25 -4 14 9 25 18 25 20 0 2 -11 4 -25 4 -18
0 -25 -5 -25 -20z"/>
<path d="M3841 4554 c0 -11 3 -14 6 -6 3 7 2 16 -1 19 -3 4 -6 -2 -5 -13z"/>
<path d="M2265 4539 c-4 -6 -19 -7 -36 -4 -18 4 -36 2 -44 -5 -16 -13 -21 -50
-7 -50 4 0 12 -10 17 -22 6 -14 21 -24 38 -26 23 -3 26 -7 21 -27 -3 -13 -2
-30 3 -37 5 -9 10 2 14 32 5 36 6 28 7 -37 l2 -83 -45 0 -45 0 0 39 c0 36 17
58 43 53 4 -1 7 9 7 23 0 14 -3 24 -7 23 -5 0 -15 2 -25 6 -9 4 -31 6 -50 4
l-33 -3 3 -75 c3 -70 2 -74 -13 -55 -10 12 -14 29 -10 44 5 21 3 23 -24 19
-28 -4 -33 0 -51 36 -11 23 -20 35 -20 28 0 -7 5 -23 11 -35 9 -18 9 -20 -2
-9 -17 15 -61 16 -77 0 -16 -16 -16 -140 1 -157 10 -11 8 -11 -10 -2 -50 25
-91 2 -79 -45 4 -16 19 -30 41 -40 41 -17 72 -9 53 13 -9 11 -9 16 3 23 11 7
15 2 20 -23 4 -17 7 -26 8 -19 1 14 48 17 53 2 4 -12 57 1 60 15 2 6 6 9 10 8
5 -2 8 6 8 17 0 11 5 20 11 20 6 0 9 -14 7 -32 l-3 -33 82 -2 c46 -2 85 2 88
7 3 6 11 10 17 10 21 0 -14 -30 -46 -39 l-31 -9 36 -1 c21 -1 42 5 49 14 11
13 16 13 42 -1 16 -8 34 -29 40 -45 5 -16 18 -34 28 -39 27 -15 43 12 38 65
-2 30 0 44 8 41 7 -3 11 9 10 32 -1 32 2 37 23 40 24 4 24 3 18 -59 -3 -35 -1
-71 4 -81 10 -19 54 -25 64 -8 3 6 24 10 46 10 35 0 39 3 39 24 0 22 -5 25
-42 28 -41 3 -43 5 -46 37 -2 19 2 45 9 57 6 13 9 32 6 43 -5 22 15 35 43 26
15 -5 40 29 40 55 0 19 -33 41 -54 35 -19 -6 -20 -5 -2 6 14 8 24 8 43 0 21
-9 24 -17 21 -42 -5 -32 6 -27 16 8 10 32 -27 67 -62 58 -15 -4 -29 -11 -30
-16 -2 -5 -10 -16 -18 -24 -9 -8 -10 -16 -4 -20 16 -10 12 -42 -6 -49 -25 -10
-46 -7 -38 5 5 8 1 8 -14 0 -33 -18 -35 -14 -30 54 3 36 2 67 -2 70 -5 3 -6
-3 -3 -13 2 -11 -3 -26 -11 -35 -9 -8 -16 -32 -16 -51 0 -20 -4 -36 -10 -36
-5 0 -10 18 -10 41 0 30 6 46 23 60 12 10 17 18 10 19 -6 0 -14 -6 -16 -12 -3
-7 -6 -3 -6 9 -1 12 -7 24 -13 26 -7 3 -1 6 14 6 30 1 50 21 21 21 -11 0 -14
3 -7 8 17 11 -32 84 -54 80 -13 -3 -17 -15 -17 -56 0 -28 -3 -52 -7 -52 -5 0
-8 -14 -8 -31 0 -22 5 -32 20 -36 16 -4 20 -14 20 -44 0 -39 0 -39 -40 -39
l-40 0 0 40 c0 38 -2 40 -30 40 -32 0 -33 3 -34 123 -1 15 -6 27 -13 27 -19 0
-16 17 5 29 16 10 16 10 0 11 -9 0 -20 -5 -23 -11z m-205 -219 c0 -11 -4 -20
-10 -20 -5 0 -10 9 -10 20 0 11 5 20 10 20 6 0 10 -9 10 -20z m260 -85 c0 -25
-4 -45 -10 -45 -5 0 -10 20 -10 45 0 25 5 45 10 45 6 0 10 -20 10 -45z m-290
-11 c6 -27 4 -29 -25 -29 -27 0 -31 3 -27 20 12 51 43 57 52 9z m174 -43 c8
-12 -3 -38 -18 -44 -8 -3 -11 4 -8 24 4 29 16 37 26 20z"/>
<path d="M3895 4530 c-3 -6 1 -7 9 -4 18 7 21 14 7 14 -6 0 -13 -4 -16 -10z"/>
<path d="M3820 4505 c-8 -9 -8 -15 -2 -15 12 0 26 19 19 26 -2 2 -10 -2 -17
-11z"/>
<path d="M3905 4511 c-3 -5 -2 -12 3 -15 5 -3 9 1 9 9 0 17 -3 19 -12 6z"/>
<path d="M1255 4490 c3 -5 10 -10 16 -10 5 0 9 5 9 10 0 6 -7 10 -16 10 -8 0
-12 -4 -9 -10z"/>
<path d="M2066 4485 c-3 -9 0 -15 9 -15 16 0 20 16 6 24 -5 3 -11 -1 -15 -9z"/>
<path d="M3921 4458 c-1 -22 33 -58 54 -58 23 0 18 9 -10 20 -14 5 -30 20 -35
32 -7 18 -9 19 -9 6z"/>
<path d="M4022 4450 c0 -14 2 -19 5 -12 2 6 2 18 0 25 -3 6 -5 1 -5 -13z"/>
<path d="M4076 4452 c-3 -5 1 -9 9 -9 8 0 12 4 9 9 -3 4 -7 8 -9 8 -2 0 -6 -4
-9 -8z"/>
<path d="M942 4388 c-19 -19 -14 -28 13 -28 27 0 32 12 12 29 -10 8 -17 7 -25
-1z"/>
<path d="M2540 4351 c0 -6 5 -13 12 -17 6 -4 8 -3 4 4 -3 5 0 13 6 15 8 3 6 6
-4 6 -10 1 -18 -3 -18 -8z"/>
<path d="M2667 4253 c-4 -3 -7 -15 -7 -25 0 -20 26 -24 50 -8 13 9 12 12 -4
25 -22 17 -29 18 -39 8z"/>
<path d="M732 4178 c-8 -8 -9 -15 -1 -25 17 -20 29 -15 29 12 0 27 -9 32 -28
13z"/>
<path d="M2755 4154 c0 -18 3 -30 8 -27 4 2 7 -1 7 -6 0 -6 11 -11 25 -11 14
0 24 3 23 8 0 4 2 15 7 25 10 24 -6 40 -42 42 -25 1 -28 -2 -28 -31z"/>
<path d="M2928 4137 c26 -27 28 -37 7 -37 -8 0 -15 -8 -16 -17 0 -14 -2 -13
-9 5 -7 16 -17 22 -42 22 -24 0 -29 -3 -19 -9 12 -8 13 -16 3 -48 -6 -21 -12
-84 -14 -141 -3 -112 -13 -136 -48 -114 -16 10 -20 8 -25 -8 -4 -11 -10 -18
-14 -16 -3 2 -6 -7 -5 -22 0 -19 8 -28 28 -35 21 -7 25 -12 15 -18 -10 -6 -6
-11 14 -18 23 -9 26 -15 21 -36 -5 -19 -2 -26 12 -31 11 -3 26 -9 35 -14 12
-6 20 -2 29 15 20 36 37 38 49 3 6 -17 16 -28 23 -26 18 6 26 59 14 80 -8 12
-7 21 2 30 6 6 12 31 12 55 0 41 1 43 30 43 41 0 96 28 82 42 -14 14 -4 38 14
31 21 -8 47 16 34 32 -8 9 -5 14 11 18 31 8 23 61 -10 65 -13 2 -28 -1 -34 -7
-7 -7 -22 -1 -49 20 -30 24 -38 38 -38 62 0 18 -3 42 -6 54 -7 26 -39 39 -57
25 -8 -7 -18 -6 -31 4 -31 22 -42 16 -18 -9z m14 -102 c36 9 61 -18 53 -57 -7
-29 -6 -30 23 -23 39 8 66 -17 57 -53 -4 -16 -1 -29 7 -34 9 -7 8 -8 -5 -4
-10 3 -32 6 -48 6 -26 0 -29 3 -29 33 0 42 -15 57 -57 57 -30 0 -33 3 -33 29
0 16 -3 38 -6 48 -4 13 -3 14 4 5 5 -8 18 -11 34 -7z m33 -120 c0 -13 -8 -21
-22 -23 -17 -3 -23 2 -23 16 0 10 3 22 7 26 13 13 38 1 38 -19z m-75 -200
c-10 -12 -16 -13 -26 -4 -20 16 -18 19 12 19 22 0 25 -2 14 -15z m53 -19 c5
-14 -10 -36 -25 -36 -4 0 -8 11 -8 25 0 27 24 35 33 11z"/>
<path d="M2110 4086 c0 -34 -2 -36 -34 -36 -32 0 -33 -1 -27 -32 9 -43 44 -47
49 -6 4 31 18 45 52 50 14 1 25 10 26 18 1 10 0 11 -3 2 -3 -8 -11 -11 -20 -8
-8 3 -17 6 -19 6 -2 0 -4 6 -4 14 0 8 -4 18 -10 21 -6 4 -10 -8 -10 -29z"/>
<path d="M4443 4085 c0 -8 4 -12 9 -9 5 3 6 10 3 15 -9 13 -12 11 -12 -6z"/>
<path d="M2675 4020 c-8 -25 -32 -26 -58 -2 -19 17 -20 16 -15 -14 l4 -31 -40
9 c-21 5 -43 11 -47 14 -4 2 -12 -4 -18 -13 -11 -22 3 -53 24 -53 8 0 26 -16
40 -35 35 -45 58 -51 99 -27 24 14 38 17 50 10 28 -16 38 3 43 86 l4 76 -40 0
c-31 0 -41 -4 -46 -20z m-12 -57 c-7 -2 -21 -2 -30 0 -10 3 -4 5 12 5 17 0 24
-2 18 -5z m41 -22 c8 -12 -3 -41 -15 -41 -5 0 -9 11 -9 25 0 25 14 34 24 16z"/>
<path d="M4438 4023 c6 -2 18 -2 25 0 6 3 1 5 -13 5 -14 0 -19 -2 -12 -5z"/>
<path d="M4400 3975 c0 -21 36 -55 58 -54 13 0 12 2 -6 9 -12 5 -27 21 -32 35
-11 28 -20 33 -20 10z"/>
<path d="M4557 3949 c7 -7 15 -10 18 -7 3 3 -2 9 -12 12 -14 6 -15 5 -6 -5z"/>
<path d="M1821 3893 c-8 -16 -4 -18 24 -18 28 0 32 2 24 18 -5 9 -16 17 -24
17 -8 0 -19 -8 -24 -17z"/>
<path d="M1928 3879 c-16 -4 -29 -4 -29 -1 -1 4 -4 -9 -8 -28 -5 -31 -9 -34
-43 -36 -34 -3 -38 0 -38 22 0 23 -1 24 -22 10 -13 -7 -35 -16 -49 -20 -47
-10 -45 -76 2 -76 23 0 24 -7 4 -26 -8 -9 -15 -31 -15 -49 0 -33 1 -34 30 -28
19 3 30 1 30 -6 0 -6 5 -11 10 -11 18 0 11 65 -9 87 -26 27 -18 33 41 33 37 0
48 4 48 16 0 13 14 15 93 13 84 -2 92 0 95 17 1 10 -7 34 -19 53 l-21 34 -11
-23 c-15 -30 -28 -31 -43 -2 -15 30 -15 30 -46 21z"/>
<path d="M620 3856 c0 -9 5 -16 10 -16 6 0 10 4 10 9 0 6 -4 13 -10 16 -5 3
-10 -1 -10 -9z"/>
<path d="M2760 3845 c0 -15 4 -24 10 -20 6 3 10 12 10 20 0 8 -4 17 -10 20 -6
4 -10 -5 -10 -20z"/>
<path d="M3120 3853 c1 -5 7 -19 15 -33 l14 -25 1 33 c0 22 -5 32 -15 32 -8 0
-15 -3 -15 -7z"/>
<path d="M3175 3780 c-4 -6 -11 -8 -16 -5 -5 4 -9 -5 -9 -19 0 -14 5 -26 11
-26 5 0 7 -5 4 -11 -4 -5 1 -19 11 -30 18 -19 18 -21 1 -30 -12 -7 -17 -23
-17 -54 l0 -45 39 0 c45 0 67 20 53 47 -11 21 2 63 19 63 7 0 17 -7 23 -16 11
-14 18 -13 71 13 62 29 77 52 54 79 -10 13 -28 15 -81 12 -57 -3 -71 -7 -84
-26 -16 -24 -39 -20 -30 5 13 32 -32 71 -49 43z m65 -105 c0 -19 -13 -25 -30
-15 -11 7 -11 11 -1 24 15 17 31 13 31 -9z"/>
<path d="M1870 3698 c0 -22 6 -38 14 -41 12 -5 12 1 4 31 -14 50 -18 52 -18
10z"/>
<path d="M421 3674 c0 -11 3 -14 6 -6 3 7 2 16 -1 19 -3 4 -6 -2 -5 -13z"/>
<path d="M1937 3671 c-4 -17 -3 -21 5 -13 5 5 8 16 6 23 -3 8 -7 3 -11 -10z"/>
<path d="M3294 3606 c-4 -10 -2 -22 4 -28 8 -8 13 -7 18 6 4 10 2 22 -4 28 -8
8 -13 7 -18 -6z"/>
<path d="M4696 3588 c-6 -27 8 -30 32 -7 27 25 27 24 -2 24 -15 0 -27 -7 -30
-17z"/>
<path d="M3422 3570 c-27 -17 -31 -24 -26 -45 4 -15 2 -25 -5 -25 -6 0 -11 5
-11 10 0 16 -47 11 -54 -6 -15 -40 -7 -54 31 -54 20 0 45 8 55 17 25 23 52 7
56 -33 1 -16 8 -39 14 -51 6 -12 8 -31 5 -42 -4 -17 -2 -18 14 -8 14 9 21 9
31 -1 18 -18 25 -15 37 20 10 28 9 36 -9 58 -32 39 -59 106 -53 129 6 25 -12
51 -36 51 -9 0 -31 -9 -49 -20z"/>
<path d="M1794 3561 c-9 -9 -3 -57 10 -73 16 -22 52 -23 60 -2 3 9 6 30 6 47
0 30 -2 32 -36 32 -20 0 -38 -2 -40 -4z"/>
<path d="M3015 3538 c2 -38 35 -62 50 -38 4 6 11 8 16 5 5 -4 9 5 9 19 0 20
-6 27 -27 32 -16 3 -33 7 -39 9 -6 2 -10 -9 -9 -27z"/>
<path d="M3330 3556 c0 -11 9 -16 26 -16 31 0 28 23 -4 28 -15 2 -22 -2 -22
-12z"/>
<path d="M4650 3551 c0 -17 43 -41 72 -41 16 0 28 4 28 8 0 5 -13 7 -29 4 -20
-3 -35 2 -50 17 -12 12 -21 17 -21 12z"/>
<path d="M1673 3538 c-21 -27 -22 -63 -2 -87 11 -13 21 -22 22 -20 20 36 24
50 20 72 -7 34 -27 52 -40 35z"/>
<path d="M4780 3546 c0 -2 13 -6 29 -8 17 -2 28 -1 25 4 -5 8 -54 12 -54 4z"/>
<path d="M1568 3519 c-69 -26 -29 -91 47 -77 16 4 25 0 28 -11 3 -11 5 -9 6 6
1 20 -38 93 -49 92 -3 0 -17 -5 -32 -10z"/>
<path d="M4779 3468 c-6 -22 -5 -39 3 -45 6 -3 8 -1 4 5 -3 5 0 13 6 15 10 4
10 6 0 6 -7 1 -10 6 -7 11 3 6 4 10 1 10 -3 0 -6 -1 -7 -2z"/>
<path d="M3092 3440 c0 -14 2 -19 5 -12 2 6 2 18 0 25 -3 6 -5 1 -5 -13z"/>
<path d="M3185 3450 c-8 -12 20 -24 35 -15 5 3 10 10 10 16 0 12 -37 12 -45
-1z"/>
<path d="M3159 3411 c8 -5 11 -17 7 -29 -4 -12 -2 -31 4 -43 10 -18 18 -20 53
-15 22 4 71 4 109 0 l68 -7 0 -38 c0 -39 0 -39 40 -39 45 0 45 1 34 98 -7 51
-7 52 -40 52 -24 0 -34 5 -34 15 0 11 -11 15 -40 15 -29 0 -40 -4 -40 -15 0
-11 -11 -15 -39 -15 -22 0 -41 4 -43 9 -1 4 -23 11 -47 14 -25 3 -39 2 -32 -2z"/>
<path d="M3084 3392 c2 -9 7 -17 12 -17 5 -1 5 0 0 3 -4 2 -3 8 4 12 9 5 8 9
-3 13 -10 4 -14 0 -13 -11z"/>
<path d="M3048 3365 c-6 -27 10 -66 28 -72 16 -5 44 25 38 41 -3 7 -18 22 -33
34 l-29 21 -4 -24z"/>
<path d="M1541 3351 c-7 -13 -11 -37 -9 -55 3 -30 2 -31 -28 -28 -38 5 -62
-25 -45 -56 6 -11 6 -24 -1 -35 -5 -10 -7 -29 -4 -41 5 -20 2 -22 -24 -18 -34
5 -60 -12 -60 -39 0 -22 34 -33 85 -27 30 3 35 1 36 -17 1 -16 2 -17 6 -2 3
10 14 17 28 17 14 0 25 -7 28 -17 3 -13 7 -8 12 14 6 26 12 32 41 35 21 2 39
-1 46 -9 14 -17 33 -16 48 2 11 13 8 14 -19 11 -24 -3 -31 0 -27 10 3 9 0 11
-11 7 -13 -5 -15 -1 -10 18 24 99 14 127 -38 117 -23 -5 -25 -2 -25 31 0 40
14 61 40 61 17 0 40 -38 40 -66 0 -11 9 -14 31 -12 30 3 31 5 34 56 l2 53 -78
-3 c-46 -2 -80 1 -82 7 -2 5 -9 -1 -16 -14z m8 -258 c8 -16 4 -18 -24 -18 -28
0 -32 2 -24 18 5 9 16 17 24 17 8 0 19 -8 24 -17z"/>
<path d="M4730 3361 c0 -5 5 -13 10 -16 6 -3 10 -2 10 4 0 5 -4 13 -10 16 -5
3 -10 2 -10 -4z"/>
<path d="M3241 3294 c0 -11 3 -14 6 -6 3 7 2 16 -1 19 -3 4 -6 -2 -5 -13z"/>
<path d="M1720 3280 c0 -6 12 -16 26 -22 21 -10 27 -9 35 3 12 20 11 31 -3 26
-7 -2 -12 -11 -10 -18 2 -9 -3 -8 -16 4 -21 19 -32 22 -32 7z"/>
<path d="M3273 3243 c9 -2 23 -2 30 0 6 3 -1 5 -18 5 -16 0 -22 -2 -12 -5z"/>
<path d="M3316 3215 c-3 -8 -1 -15 4 -15 6 0 10 7 10 15 0 8 -2 15 -4 15 -2 0
-6 -7 -10 -15z"/>
<path d="M3540 3201 c0 -12 5 -21 10 -21 6 0 10 6 10 14 0 8 -4 18 -10 21 -5
3 -10 -3 -10 -14z"/>
<path d="M1807 3186 c10 -13 19 -23 21 -21 7 6 -19 45 -29 45 -5 0 -2 -11 8
-24z"/>
<path d="M3480 3154 c0 -6 -10 -9 -24 -7 -13 3 -27 0 -31 -6 -9 -16 14 -43 34
-39 9 2 21 -6 26 -17 8 -15 21 -20 50 -20 34 0 41 4 43 22 2 12 -3 34 -11 49
-11 21 -22 27 -51 28 -20 1 -36 -4 -36 -10z"/>
<path d="M1710 3109 c0 -5 5 -7 10 -4 6 3 10 8 10 11 0 2 -4 4 -10 4 -5 0 -10
-5 -10 -11z"/>
<path d="M1562 2950 c3 -21 8 -25 35 -25 28 0 32 -3 27 -20 -16 -50 -37 -53
-56 -7 -10 25 -11 25 -17 7 -6 -19 -20 -27 -48 -28 -7 0 -13 -9 -13 -19 0 -24
-16 -23 -23 2 -3 11 -13 20 -22 20 -9 0 -19 -9 -22 -20 -7 -26 -17 -25 -40 4
-17 22 -21 23 -53 13 -27 -9 -36 -18 -38 -40 -2 -18 2 -29 13 -33 10 -4 12
-10 7 -18 -5 -6 -12 -30 -15 -54 -4 -36 -3 -41 9 -31 10 8 14 8 14 0 0 -6 8
-11 18 -11 10 0 24 -6 31 -12 11 -11 12 -10 6 0 -6 11 10 13 83 10 82 -3 89
-5 81 -20 -12 -22 -38 -23 -45 -3 -7 17 -49 20 -59 5 -4 -6 -11 -8 -16 -5 -5
4 -9 -7 -9 -24 0 -16 -3 -36 -6 -45 -5 -13 1 -16 30 -16 27 0 36 -4 37 -17 0
-11 3 -13 6 -5 3 7 23 12 48 12 28 0 49 6 57 16 15 18 48 51 77 76 17 14 19
26 14 96 -6 86 -7 85 62 140 9 8 15 21 13 30 -4 23 -62 38 -93 24 -21 -10 -25
-9 -25 6 0 13 -9 17 -35 17 -32 0 -36 -2 -33 -25z m-117 -160 c14 0 25 7 28
18 3 10 4 7 4 -8 -1 -21 -6 -25 -32 -25 -26 0 -31 4 -32 25 0 15 1 18 4 8 3
-11 14 -18 28 -18z m112 -82 c-3 -8 -6 -5 -6 6 -1 11 2 17 5 13 3 -3 4 -12 1
-19z"/>
<path d="M3628 2869 c-27 -15 -21 -30 10 -24 24 5 25 5 5 -4 -18 -8 -22 -17
-19 -41 2 -22 -1 -30 -13 -31 -15 0 20 -18 45 -23 7 -1 30 -14 51 -29 43 -30
90 -35 99 -12 11 28 -16 47 -61 43 l-41 -3 23 34 c35 52 28 75 -28 91 -42 12
-49 12 -71 -1z"/>
<path d="M3432 2763 c-10 -4 -10 -8 -2 -19 12 -14 6 -34 -11 -34 -5 0 -9 9 -9
20 0 16 -7 20 -34 20 -42 0 -87 -33 -69 -50 6 -7 31 -11 59 -8 39 3 52 -1 72
-19 54 -50 172 -18 172 47 0 27 -3 29 -47 35 -95 12 -118 13 -131 8z"/>
<path d="M3901 2733 c-1 -20 -8 -37 -19 -44 -13 -8 -17 -20 -14 -37 6 -31 -18
-27 -33 6 -13 28 -54 29 -85 2 -13 -11 -18 -20 -11 -20 7 0 18 -15 26 -34 10
-22 25 -37 45 -45 17 -6 52 -24 77 -41 53 -36 69 -30 59 24 -5 27 -13 37 -31
42 -27 7 -32 18 -13 30 6 4 14 2 16 -4 2 -7 8 -12 13 -12 6 0 7 4 4 10 -3 5 0
7 8 4 17 -6 47 31 47 58 0 10 -18 29 -39 42 -21 14 -41 31 -44 38 -3 7 -6 -2
-6 -19z m25 -182 c-4 -5 0 -12 6 -15 7 -3 2 -3 -11 0 -17 4 -21 3 -16 -6 6 -9
3 -9 -14 -1 -11 7 -21 14 -21 17 0 3 5 2 10 -1 6 -3 10 -1 10 4 0 6 9 11 21
11 11 0 18 -4 15 -9z"/>
<path d="M3070 2705 c-16 -19 -29 -80 -21 -94 9 -14 51 -2 51 15 0 7 9 18 19
24 32 17 36 12 11 -15 l-23 -25 25 0 c31 0 74 32 64 48 -4 7 -16 12 -27 12
-10 0 -19 6 -19 13 0 13 -39 37 -59 37 -5 0 -14 -7 -21 -15z"/>
<path d="M3258 2652 c3 -22 -2 -33 -19 -46 l-23 -16 22 0 c34 0 57 77 26 87
-6 2 -9 -8 -6 -25z"/>
<path d="M3660 2660 c0 -5 7 -10 16 -10 8 0 12 5 9 10 -3 6 -10 10 -16 10 -5
0 -9 -4 -9 -10z"/>
<path d="M1350 2626 c0 -2 7 -6 15 -10 8 -3 15 -1 15 4 0 6 -7 10 -15 10 -8 0
-15 -2 -15 -4z"/>
<path d="M2821 2616 c-9 -10 -11 -34 -7 -71 3 -34 1 -53 -5 -50 -10 7 -30 -35
-22 -47 2 -5 19 -8 36 -8 26 -1 29 -3 15 -10 -20 -12 -68 4 -68 22 0 10 -2 10
-9 0 -6 -10 -10 -7 -13 12 -4 18 -1 26 9 26 10 0 9 5 -4 19 -52 53 -103 47
-103 -14 0 -38 27 -61 60 -50 17 5 18 2 14 -27 -7 -45 10 -88 35 -88 25 0 44
34 38 65 -3 21 -1 22 20 14 37 -14 86 -11 112 7 19 14 22 23 18 55 -5 36 -4
37 17 29 13 -5 29 -4 37 1 12 7 12 9 0 9 -11 0 -11 3 0 16 16 19 22 51 11 58
-5 3 -23 -11 -41 -29 -34 -36 -41 -39 -79 -28 -20 5 -23 11 -20 37 3 17 7 38
9 46 6 21 -44 26 -60 6z"/>
<path d="M1325 2540 c4 -7 65 -1 65 6 0 3 -15 4 -34 2 -19 -1 -33 -5 -31 -8z"/>
<path d="M1210 2454 c0 -55 4 -75 19 -91 11 -11 21 -31 23 -44 3 -21 4 -22 20
-6 16 16 18 15 38 -10 11 -15 19 -32 16 -38 -2 -7 6 -10 26 -7 17 3 33 0 37
-5 3 -5 27 -7 54 -5 56 5 76 28 55 65 -6 12 -11 34 -9 48 2 24 0 25 -46 25
-47 -1 -48 0 -51 32 -3 33 11 44 22 17 15 -40 56 -2 56 52 0 26 -3 28 -40 28
-32 1 -40 -3 -40 -17 0 -15 -9 -17 -77 -13 -59 3 -81 9 -90 22 -11 14 -13 6
-13 -53z m98 -95 c2 -10 -6 -19 -18 -22 -23 -6 -34 7 -26 29 8 20 40 14 44 -7z
m66 -50 c-32 -13 -50 -9 -24 5 14 7 29 10 34 8 5 -3 1 -9 -10 -13z"/>
<path d="M3960 2449 l0 -40 53 3 c44 3 52 6 55 25 4 27 -32 53 -75 53 -32 0
-33 -1 -33 -41z"/>
<path d="M2602 2462 c-35 -19 -72 -66 -72 -93 0 -23 43 -39 98 -38 28 1 36 4
20 6 -25 4 -26 7 -17 30 5 14 7 34 4 43 -7 21 -42 33 -49 16 -3 -8 -5 -7 -5 1
-1 7 13 19 29 28 17 9 30 18 30 20 0 7 -1 7 -38 -13z"/>
<path d="M3977 2393 c-13 -12 -7 -113 7 -148 14 -32 36 -48 36 -26 0 5 14 7
31 4 62 -9 118 37 89 72 -18 21 -53 18 -84 -6 l-26 -20 0 43 c0 56 -31 104
-53 81z"/>
<path d="M2406 2375 c-9 -9 -17 -11 -21 -5 -12 20 -44 9 -62 -21 -16 -27 -24
-31 -70 -34 -62 -3 -83 -17 -83 -55 0 -16 -6 -31 -12 -33 -8 -3 -6 -6 5 -6 10
-1 17 -8 16 -18 0 -11 -3 -13 -6 -5 -6 16 -43 16 -43 -1 0 -21 -75 -86 -106
-91 -15 -3 -36 0 -47 5 -14 8 -22 8 -27 -1 -6 -9 -9 -9 -15 0 -9 14 2 26 30
33 18 4 18 5 -2 6 -12 0 -24 -3 -28 -9 -4 -6 -15 -5 -30 2 -19 8 -28 8 -40 -2
-18 -15 -20 -61 -2 -80 10 -12 9 -12 -4 -2 -9 7 -41 15 -70 17 -30 2 -44 2
-31 -1 21 -5 21 -7 7 -27 -8 -12 -15 -29 -15 -39 0 -23 58 -25 101 -2 24 12
37 13 63 4 46 -15 79 2 102 51 21 43 35 45 45 8 l7 -24 1 26 c1 25 3 26 55 21
67 -5 93 8 105 56 11 37 60 80 80 68 5 -3 22 15 37 41 15 26 29 43 31 37 2 -6
15 -9 28 -6 30 5 44 41 21 54 -12 7 -14 13 -6 29 13 23 7 25 -14 4z"/>
<path d="M1315 2190 c-3 -5 -1 -10 4 -10 6 0 11 5 11 10 0 6 -2 10 -4 10 -3 0
-8 -4 -11 -10z"/>
<path d="M4073 2140 c-13 -5 -23 -14 -23 -19 0 -6 7 -8 16 -4 9 3 20 0 25 -8
6 -10 8 -6 7 14 -1 15 -3 27 -3 26 0 0 -10 -4 -22 -9z"/>
<path d="M1361 2126 c-1 -12 -6 -16 -16 -12 -8 3 -21 -1 -29 -9 -8 -8 -26 -15
-40 -15 -19 0 -26 -5 -26 -19 0 -11 -4 -23 -10 -26 -5 -3 -10 0 -10 8 0 20
-26 29 -38 14 -24 -31 -25 -39 -3 -25 30 18 52 -7 53 -61 0 -23 4 -43 8 -46 5
-3 6 -14 3 -26 -4 -14 1 -25 16 -35 22 -16 29 -64 10 -64 -7 0 -18 -8 -26 -17
-13 -17 -14 -16 -12 7 2 44 -12 69 -42 75 -16 4 -29 11 -29 16 0 12 -62 12
-94 -1 -17 -6 -27 -19 -31 -43 -8 -43 10 -113 30 -116 31 -5 81 -4 120 3 22 3
54 6 71 6 33 0 60 22 49 40 -3 5 -13 10 -22 10 -14 0 -14 2 -1 18 8 9 14 24
13 32 0 8 4 18 9 22 6 4 5 12 -3 22 -7 8 -11 25 -9 38 3 22 5 21 26 -12 12
-19 22 -30 22 -24 0 5 -7 19 -15 30 -20 26 -20 51 -1 35 8 -7 32 -11 53 -9 43
3 55 28 30 56 -13 15 -14 20 -1 36 18 26 20 83 1 68 -14 -12 -40 3 -50 28 -4
12 -6 11 -6 -4z m-77 -221 c-4 -8 1 -17 10 -21 9 -3 13 -10 10 -16 -3 -5 -14
-2 -25 8 -14 13 -16 20 -8 31 15 17 20 17 13 -2z"/>
<path d="M4132 2105 c0 -16 2 -22 5 -12 2 9 2 23 0 30 -3 6 -5 -1 -5 -18z"/>
<path d="M3939 1983 c-12 -14 -12 -15 0 -9 7 5 36 12 65 16 l51 8 -51 1 c-37
1 -55 -4 -65 -16z"/>
<path d="M4050 1945 c0 -23 -4 -25 -44 -25 -26 0 -51 6 -59 15 -8 8 -17 11
-21 8 -13 -14 -5 -64 14 -83 22 -22 79 -27 98 -8 9 9 12 7 12 -12 0 -19 3 -21
12 -12 7 7 20 12 30 12 13 0 18 -8 18 -30 0 -29 2 -30 43 -30 59 0 70 10 71
65 1 57 -21 78 -76 73 -28 -3 -38 0 -38 11 0 16 -28 40 -47 41 -7 0 -13 -11
-13 -25z"/>
<path d="M1185 1910 c28 -12 57 -12 50 0 -3 6 -21 10 -38 9 -27 0 -29 -2 -12
-9z"/>
<path d="M1370 1908 c14 -6 36 -14 48 -19 23 -9 23 -11 8 -34 -22 -34 -22 -77
1 -68 11 4 14 3 9 -5 -5 -9 0 -9 19 -2 34 13 70 13 40 0 -16 -7 -11 -9 20 -9
22 1 34 3 28 6 -17 6 -16 24 1 57 31 60 -9 86 -128 85 -59 0 -67 -2 -46 -11z"/>
<path d="M4024 1768 c-13 -24 -15 -47 -11 -94 l6 -63 -32 -6 c-18 -4 -38 -12
-44 -17 -16 -13 -17 -55 -1 -60 8 -3 7 -11 -5 -28 -24 -34 -23 -59 1 -37 17
16 18 15 14 -16 -5 -41 15 -59 60 -55 28 3 33 7 36 33 2 17 8 35 14 40 8 7 9
6 4 -2 -8 -14 19 -7 41 10 7 5 31 7 54 5 39 -4 40 -3 36 22 -2 14 -8 33 -12
43 -8 19 13 21 28 2 5 -5 6 3 3 18 -8 34 2 55 16 36 7 -10 8 -3 4 19 -6 33
-36 87 -36 65 0 -6 -9 -9 -20 -6 -17 5 -18 2 -8 -24 16 -43 -6 -162 -27 -142
-13 14 -18 139 -5 154 10 12 10 15 -2 15 -8 0 -19 12 -26 28 -9 22 -11 11 -6
-63 3 -49 9 -92 13 -95 5 -3 5 -14 0 -25 -7 -19 -8 -19 -8 3 -1 13 -5 21 -10
17 -5 -3 -13 0 -16 6 -4 5 -13 8 -21 5 -16 -6 -17 -1 -5 41 5 17 11 64 12 105
3 53 8 75 19 81 10 5 8 6 -7 3 -13 -2 -23 0 -23 5 0 20 -20 7 -36 -23z m36
-12 c0 -12 -6 -30 -13 -40 -12 -17 -14 -17 -20 -3 -8 21 12 79 24 71 5 -3 9
-15 9 -28z"/>
<path d="M4740 1774 c0 -8 5 -12 10 -9 6 4 8 11 5 16 -9 14 -15 11 -15 -7z"/>
<path d="M1365 1737 c-13 -27 -29 -44 -45 -48 -21 -6 -22 -7 -4 -8 24 -1 48
22 64 63 17 45 6 40 -15 -7z"/>
<path d="M4741 1724 c0 -11 3 -14 6 -6 3 7 2 16 -1 19 -3 4 -6 -2 -5 -13z"/>
<path d="M1188 1683 c12 -2 32 -2 45 0 12 2 2 4 -23 4 -25 0 -35 -2 -22 -4z"/>
<path d="M893 1665 c-23 -18 -8 -46 29 -56 38 -10 55 4 41 34 -14 30 -46 40
-70 22z m47 -25 c0 -5 -7 -10 -15 -10 -8 0 -15 5 -15 10 0 6 7 10 15 10 8 0
15 -4 15 -10z"/>
<path d="M1118 1623 c7 -3 16 -2 19 1 4 3 -2 6 -13 5 -11 0 -14 -3 -6 -6z"/>
<path d="M898 1588 c21 -7 32 -17 32 -30 0 -11 5 -16 10 -13 17 11 11 45 -7
45 -10 0 -29 2 -43 5 -15 3 -12 0 8 -7z"/>
<path d="M1118 1593 c7 -3 16 -2 19 1 4 3 -2 6 -13 5 -11 0 -14 -3 -6 -6z"/>
<path d="M990 1541 c0 -15 29 -21 101 -21 55 0 69 3 69 15 0 12 -16 15 -85 15
-47 0 -85 -4 -85 -9z"/>
<path d="M4215 1510 c3 -5 8 -10 11 -10 2 0 4 5 4 10 0 6 -5 10 -11 10 -5 0
-7 -4 -4 -10z"/>
<path d="M979 1494 c-23 -27 1 -49 55 -49 25 0 46 3 46 8 0 4 5 7 10 7 6 0 10
-6 10 -14 0 -10 7 -12 23 -8 27 6 37 20 37 50 0 21 -4 22 -84 22 -64 0 -87 -4
-97 -16z"/>
<path d="M3532 1418 c-16 -16 -15 -90 1 -108 10 -12 9 -12 -4 -2 -9 6 -18 10
-21 7 -9 -9 4 -65 16 -65 8 0 8 -2 0 -8 -11 -6 -19 -53 -14 -77 1 -5 1 -21 1
-35 -3 -45 16 -80 43 -80 29 0 41 14 51 60 9 42 9 45 -7 45 -6 0 -13 6 -15 13
-3 7 4 12 15 12 27 0 34 11 19 28 -10 13 -9 14 3 7 8 -4 12 -5 8 0 -4 4 -3 13
2 20 7 8 5 12 -5 12 -8 0 -12 -4 -9 -9 3 -4 -5 -8 -18 -7 -13 0 -18 2 -13 5
11 5 4 161 -9 182 -9 15 -29 15 -44 0z"/>
<path d="M3708 1419 c-26 -14 -34 -74 -14 -104 15 -22 15 -25 -1 -33 -27 -16
-9 -39 26 -34 31 4 31 4 31 -41 0 -29 6 -49 17 -58 15 -13 15 -12 5 8 -7 12
-12 38 -12 57 0 33 2 36 30 36 23 0 33 6 39 23 5 12 7 25 4 30 -6 10 19 8 37
-3 10 -6 11 -10 3 -10 -7 0 -13 -9 -13 -19 0 -13 -8 -21 -22 -23 -18 -2 -22
-9 -20 -29 2 -14 -2 -38 -8 -53 -8 -21 -7 -27 2 -24 7 3 18 24 24 49 l12 44 3
-44 c5 -54 32 -77 55 -47 21 30 18 69 -8 85 -23 14 -23 14 12 26 42 14 48 46
10 55 -25 6 -24 7 6 14 25 6 33 13 36 37 4 27 2 29 -29 29 -19 0 -43 -5 -54
-10 -15 -8 -19 -7 -19 4 0 38 -106 62 -152 35z m176 -100 c-8 -14 -24 -10 -24
6 0 9 6 12 15 9 8 -4 12 -10 9 -15z"/>
<path d="M1152 1337 c-8 -20 -15 -25 -29 -20 -10 3 -21 11 -25 17 -11 16 -10
-6 1 -23 11 -17 61 -7 61 14 0 7 4 16 10 20 5 3 5 -7 -1 -25 -6 -17 -9 -40 -6
-53 3 -12 -1 -31 -9 -41 -17 -24 -18 -58 -2 -74 13 -13 49 -16 64 -4 5 4 6 3
2 -3 -12 -14 -9 -70 4 -83 7 -7 25 -12 40 -12 24 0 27 3 20 18 -5 9 -12 36
-15 60 l-5 42 44 0 c42 0 44 1 44 29 0 16 6 31 13 34 7 2 12 23 12 55 0 28 -1
49 -4 46 -2 -2 -11 2 -20 10 -10 9 -47 15 -102 18 -86 3 -87 3 -97 -25z m154
-38 c16 -13 19 -49 3 -49 -5 0 -8 -4 -4 -9 3 -5 -9 -11 -27 -13 -29 -3 -33 -6
-31 -30 2 -34 -2 -35 -18 -6 -10 18 -8 24 7 35 9 7 15 16 11 19 -4 4 -13 2
-20 -5 -15 -12 -47 -5 -47 10 0 5 11 9 25 9 19 0 25 5 25 23 0 18 6 23 31 25
17 1 38 -3 45 -9z m19 -109 c3 -5 1 -10 -4 -10 -6 0 -11 5 -11 10 0 6 2 10 4
10 3 0 8 -4 11 -10z"/>
<path d="M1782 1351 c-20 -12 -31 -66 -25 -130 l6 -61 -42 0 -41 0 -2 -52 c-2
-75 1 -110 13 -124 28 -34 135 -20 144 19 3 12 4 91 3 176 -3 141 -5 155 -23
167 -11 7 -26 10 -33 5z"/>
<path d="M3056 1334 c-22 -21 -22 -104 0 -104 8 0 13 -4 10 -8 -3 -5 5 -19 17
-33 15 -17 22 -37 23 -68 0 -58 21 -73 89 -65 76 10 85 18 85 69 0 25 -4 45
-10 45 -5 0 -10 -17 -10 -37 0 -21 -4 -44 -9 -52 -15 -24 -31 -1 -31 45 0 24
-4 44 -10 44 -5 0 -20 10 -32 23 -13 12 -22 25 -20 30 1 4 -6 7 -16 7 -14 0
-17 7 -14 39 3 30 -1 44 -17 60 -25 25 -35 26 -55 5z"/>
<path d="M3315 1333 l30 -17 -25 -6 c-21 -5 -25 -12 -25 -41 0 -18 -4 -40 -8
-47 -5 -7 -3 -14 6 -18 15 -5 19 -34 5 -34 -13 0 -9 -75 6 -95 24 -34 43 -12
50 62 4 37 7 74 8 81 1 7 17 12 42 12 53 0 78 15 41 24 -30 8 -29 26 4 42 20
10 20 12 4 25 -11 9 -14 10 -9 2 5 -9 -1 -13 -18 -13 -27 0 -35 15 -13 23 9 4
9 6 -1 6 -7 1 -23 -4 -34 -10 -17 -9 -23 -8 -30 5 -5 9 -21 16 -36 16 l-27 -1
30 -16z"/>
<path d="M4095 1340 c-3 -5 -2 -10 4 -10 5 0 13 5 16 10 3 6 2 10 -4 10 -5 0
-13 -4 -16 -10z"/>
<path d="M4098 1293 c6 -2 18 -2 25 0 6 3 1 5 -13 5 -14 0 -19 -2 -12 -5z"/>
<path d="M2329 1255 c-1 -3 -3 -9 -4 -15 -1 -5 -3 -17 -4 -25 -2 -29 -263 -14
-296 16 -12 12 -25 12 -25 0 0 -5 9 -11 20 -14 12 -3 18 -12 16 -24 -4 -18 2
-19 141 -15 l146 5 -6 -24 c-4 -13 -7 -34 -7 -46 0 -19 -5 -23 -32 -22 -31 1
-32 1 -8 9 17 5 -4 8 -63 9 -57 1 -86 -3 -82 -9 3 -5 -1 -10 -9 -10 -12 0 -16
-11 -16 -48 0 -26 5 -53 12 -60 18 -18 172 -16 188 3 10 12 15 12 35 -1 32
-21 41 -5 49 86 4 50 12 79 22 86 12 10 6 13 -36 19 -50 7 -65 26 -24 33 10 2
37 8 59 14 l39 10 -24 14 c-24 13 -89 19 -91 9z m-101 -162 c-10 -2 -26 -2
-35 0 -10 3 -2 5 17 5 19 0 27 -2 18 -5z"/>
<path d="M3650 1235 c0 -2 6 -8 13 -14 10 -8 14 -7 14 2 0 8 -6 14 -14 14 -7
0 -13 -1 -13 -2z"/>
<path d="M1369 1223 c-5 -34 11 -63 36 -63 6 1 2 5 -8 11 -10 6 -14 15 -10 22
13 21 12 37 -3 37 -8 0 -15 -3 -15 -7z"/>
<path d="M4520 1208 c0 -19 2 -20 10 -8 13 19 13 30 0 30 -5 0 -10 -10 -10
-22z"/>
<path d="M3657 1179 c7 -7 15 -10 18 -7 3 3 -2 9 -12 12 -14 6 -15 5 -6 -5z"/>
<path d="M2961 1161 c-11 -7 -9 -10 10 -13 18 -2 23 -9 22 -26 -3 -25 9 -29
26 -9 8 11 5 19 -14 35 -29 25 -26 24 -44 13z"/>
<path d="M3660 1146 c7 -7 13 -7 20 0 6 6 3 10 -10 10 -13 0 -16 -4 -10 -10z"/>
<path d="M1291 1124 c-1 -36 21 -70 38 -59 9 5 7 11 -8 21 -11 8 -22 27 -24
42 -4 27 -4 26 -6 -4z"/>
<path d="M2921 1124 c0 -11 3 -14 6 -6 3 7 2 16 -1 19 -3 4 -6 -2 -5 -13z"/>
<path d="M623 1113 c-27 -10 -11 -21 30 -20 23 0 32 2 20 4 -13 3 -23 9 -23
14 0 10 -8 10 -27 2z"/>
<path d="M2946 1112 c-5 -9 28 -42 42 -42 4 1 -3 9 -15 19 -12 10 -19 21 -16
25 4 3 4 6 0 6 -3 0 -8 -4 -11 -8z"/>
<path d="M4473 1108 c-22 -28 -20 -33 12 -33 30 0 32 2 22 23 -12 25 -20 28
-34 10z"/>
<path d="M1440 1091 c0 -6 4 -13 10 -16 6 -3 7 1 4 9 -7 18 -14 21 -14 7z"/>
<path d="M1398 1063 c6 -2 18 -2 25 0 6 3 1 5 -13 5 -14 0 -19 -2 -12 -5z"/>
<path d="M665 1041 c-3 -5 -2 -12 3 -15 5 -3 9 1 9 9 0 17 -3 19 -12 6z"/>
<path d="M4390 1000 c-12 -8 -9 -10 13 -10 16 0 26 4 22 10 -8 12 -16 12 -35
0z"/>
<path d="M4345 983 c-11 -3 -24 -9 -29 -13 -5 -5 1 -6 13 -3 16 4 20 2 16 -9
-3 -8 0 -20 7 -26 10 -8 13 -3 13 24 0 19 0 33 0 33 0 -1 -9 -3 -20 -6z"/>
<path d="M900 795 c0 -14 5 -25 10 -25 6 0 10 11 10 25 0 14 -4 25 -10 25 -5
0 -10 -11 -10 -25z"/>
<path d="M4146 798 c-2 -7 -6 -20 -9 -28 -3 -11 4 -15 28 -15 26 0 31 3 23 13
-6 7 -18 10 -26 7 -10 -4 -13 0 -9 15 5 21 -1 28 -7 8z"/>
<path d="M930 751 c0 -11 21 -19 38 -14 21 8 13 23 -13 23 -14 0 -25 -4 -25
-9z"/>
<path d="M4116 723 c-4 -9 -2 -21 4 -27 7 -7 10 -2 10 17 0 31 -5 34 -14 10z"/>
<path d="M3930 689 c-6 -11 -9 -25 -6 -32 3 -8 5 -7 5 2 1 8 8 23 18 33 9 10
11 18 5 18 -6 0 -16 -9 -22 -21z"/>
<path d="M4078 673 c7 -3 16 -2 19 1 4 3 -2 6 -13 5 -11 0 -14 -3 -6 -6z"/>
<path d="M3982 659 c9 -6 9 -11 -1 -23 -12 -15 -8 -20 12 -17 4 0 7 -4 7 -10
0 -5 5 -7 11 -3 8 5 8 9 -1 14 -9 5 -6 13 8 26 20 19 20 19 -14 20 -19 0 -29
-3 -22 -7z"/>
<path d="M3913 608 c-26 -12 -32 -33 -7 -24 9 3 19 6 23 6 4 0 8 7 8 15 0 8
-1 15 -1 14 -1 0 -11 -5 -23 -11z"/>
<path d="M4025 599 c-4 -6 -5 -12 -2 -15 2 -3 7 2 10 11 7 17 1 20 -8 4z"/>
<path d="M1255 520 c-4 -6 5 -10 20 -10 15 0 24 4 20 10 -3 6 -12 10 -20 10
-8 0 -17 -4 -20 -10z"/>
<path d="M1315 475 c0 -31 1 -32 28 -23 30 11 34 20 15 35 -32 25 -44 21 -43
-12z"/>
<path d="M1477 417 c4 -6 8 -19 8 -27 0 -22 30 -18 30 4 0 10 -10 22 -23 27
-17 7 -21 6 -15 -4z"/>
<path d="M3335 370 c4 -6 11 -8 16 -5 14 9 11 15 -7 15 -8 0 -12 -5 -9 -10z"/>
<path d="M3388 373 c7 -3 16 -2 19 1 4 3 -2 6 -13 5 -11 0 -14 -3 -6 -6z"/>
<path d="M1580 346 c0 -2 9 -6 20 -9 11 -3 20 -1 20 4 0 5 -9 9 -20 9 -11 0
-20 -2 -20 -4z"/>
<path d="M3501 4804 c0 -11 3 -14 6 -6 3 7 2 16 -1 19 -3 4 -6 -2 -5 -13z"/>
</g>
</svg>
